<svg class="circle-arrow" width="18" height="20" viewBox="0 0 18 20" fill="none"
	xmlns="http://www.w3.org/2000/svg">
	<path
		d="M16.7251 11.4014C16.7251 15.439 13.4884 18.7127 9.50133 18.7127C5.51426 18.7127 2.27751 15.4349 2.27751 11.3973C2.27751 7.35977 5.51426 4.08607 9.50133 4.08607C10.0681 4.08607 10.6348 4.15478 11.1856 4.28815L8.86276 6.64037L9.76474 7.55377L13.4924 3.77487L9.76873 0L8.86276 0.913404L10.8303 2.89379C6.19274 2.1461 1.83849 5.35109 1.10414 10.0474C0.369784 14.7438 3.53469 19.1492 8.1723 19.8928C12.8099 20.6365 17.1602 17.4315 17.8945 12.7351C17.9624 12.2946 17.9983 11.846 17.9983 11.3973H16.7251V11.4014Z"
		fill="#e9161f"></path>
</svg>