<svg style="width:0; height:0; visibility: hidden;" xmlns="http://www.w3.org/2000/svg">
	<symbol id="svg-phone" viewBox="0 0 25 25">
		<g>
			<path
				d="M21.0137 15.6172C20.1387 14.7096 19.0013 14.7096 18.09 15.6172C17.4046 16.2997 16.7266 16.9749 16.0412 17.6574C15.8516 17.8462 15.6985 17.8825 15.4725 17.7735C15.0569 17.5122 14.5611 17.3234 14.1455 17.0548C12.1697 15.806 10.5 14.2159 9.01997 12.4081C8.29816 11.5005 7.65656 10.5567 7.19723 9.46035C7.12432 9.23527 7.12432 9.11911 7.31388 8.93034C8.03569 8.28416 8.6773 7.60894 9.36265 6.92646C10.3105 5.9826 10.3105 4.88627 9.36265 3.94242C8.79395 3.3761 8.26171 2.84609 7.72947 2.31608C7.16077 1.74976 6.62853 1.18345 6.05983 0.653439C5.18491 -0.217813 4.04752 -0.217813 3.13614 0.653439C2.45079 1.33592 1.77273 2.01114 1.08738 2.69362C0.438477 3.3398 0.103092 4.09489 0.0228907 4.95888C-0.0937651 6.36014 0.248911 7.71784 0.744699 9.03924C1.77273 11.7982 3.32571 14.1796 5.18491 16.4086C7.72947 19.4362 10.7625 21.8176 14.2987 23.5166C15.8954 24.2716 17.5286 24.8743 19.2711 24.9904C20.5252 25.063 21.5896 24.729 22.4573 23.7779C23.026 23.0954 23.7113 22.5291 24.3165 21.8902C25.2278 20.9464 25.2278 19.8137 24.3165 18.9062C23.2155 17.8098 22.1146 16.7135 21.0137 15.6172Z"
				fill="white" />
		</g>
	</symbol>

	<symbol id="svg-dwl" viewBox="0 0 25 25">
		<g>
			<path
				d="M23.75 15C23 15 22.5 15.5 22.5 16.25V21.25C22.5 22 22 22.5 21.25 22.5H3.75C3 22.5 2.5 22 2.5 21.25V16.25C2.5 15.5 2 15 1.25 15C0.5 15 0 15.5 0 16.25V21.25C0 23.375 1.625 25 3.75 25H21.25C23.375 25 25 23.375 25 21.25V16.25C25 15.5 24.5 15 23.75 15Z"
				fill="white" />
			<path
				d="M11.625 17.125C11.75 17.25 11.875 17.375 12 17.375C12.125 17.5 12.375 17.5 12.5 17.5C12.625 17.5 12.875 17.5 13 17.375C13.125 17.25 13.25 17.25 13.375 17.125L19.625 10.875C20.125 10.375 20.125 9.625 19.625 9.125C19.125 8.625 18.375 8.625 17.875 9.125L13.75 13.25V1.25C13.75 0.5 13.25 0 12.5 0C11.75 0 11.25 0.5 11.25 1.25V13.25L7.125 9.125C6.625 8.625 5.875 8.625 5.375 9.125C4.875 9.625 4.875 10.375 5.375 10.875L11.625 17.125Z"
				fill="white" />
		</g>
	</symbol>
	
	<symbol>
		<g>

		</g>
	</symbol>
	
	<symbol>
		<g>
			
		</g>
	</symbol>
	
	<symbol>
		<g>
			
		</g>
	</symbol>

</svg>