<svg xmlns="http://www.w3.org/2000/svg" width="15" height="15" viewBox="0 0 15 15" fill="none">
	<path
		d="M15 1.33699L12.617 13.7941C12.617 13.7941 12.289 14.6595 11.3708 14.2497L5.90513 9.8771L3.9156 8.87508L0.570595 7.69087C0.570595 7.69087 0.0458941 7.50867 0.00216162 7.07597C-0.0415598 6.666 0.59245 6.43823 0.59245 6.43823L13.9069 0.995372C13.9069 0.995372 15 0.494352 15 1.33699Z"
		fill="#ffffff" />
	<path
		d="M5.48973 13.6573C5.48973 13.6573 5.33666 13.6346 5.13989 12.9741C4.94313 12.3138 3.93744 8.85216 3.93744 8.85216L11.9829 3.52306C11.9829 3.52306 12.4421 3.227 12.4201 3.52306C12.4201 3.52306 12.5076 3.56862 12.2453 3.81912C12.0047 4.06964 5.92694 9.74029 5.92694 9.74029"
		fill="#ffffff" />
	<path
		d="M8.00392 11.5395L5.83956 13.5891C5.83956 13.5891 5.66465 13.7257 5.48975 13.6347L5.90514 9.80872"
		fill="#ffffff" />
</svg>